<?xml version="1.0" encoding="utf-8"?>
<!-- Generator: Adobe Illustrator 24.1.2, SVG Export Plug-In . SVG Version: 6.00 Build 0)  -->
<svg version="1.1" id="Layer_1" xmlns="http://www.w3.org/2000/svg" xmlns:xlink="http://www.w3.org/1999/xlink" x="0px" y="0px"
	 viewBox="0 0 2500 752" style="enable-background:new 0 0 2500 752;" xml:space="preserve">
<style type="text/css">
	.st0{display:none;fill:#FFFFFF;}
	.st1{display:none;}
	.st2{display:inline;fill:#FFFFFF;}
	.st3{fill-rule:evenodd;clip-rule:evenodd;}
</style>
<path class="st0" d="M561.2,184.5v232.7c0,7.9-6.4,14.2-14.2,14.2h-73.5c-7.9,0-14.2-6.4-14.2-14.2V38.7c0-7.9,6.4-14.2,14.2-14.2
	h68c7.9,0,14.2,6.4,14.2,14.2V92c0,0,24.3-76,96.4-76c0,0,71.3-8.6,100.3,70.5c0,0,24.3-70.5,98-70.5c0,0,109.6-6.5,109.6,106.9
	l0.8,62.4V418c0,7.9-6.4,14.2-14.2,14.2l0,0h-73.5c-7.9,0-14.2-6.4-14.2-14.2l-0.7-253.9c2.1-57.5-44.4-53.3-44.4-53.3
	c-58.5,1-52.9,74.5-52.9,74.5V418c0,7.9-6.4,14.2-14.2,14.2h-73.5c-7.9,0-14.2-6.4-14.2-14.2V169.8c0,0,4.3-59.6-48-59.6
	C611.2,110.3,559.4,103.5,561.2,184.5z M2454.8,183.8v232.7c0,7.9-6.4,14.2-14.2,14.2l-76.4,1.5c-7.9,0-14.2-6.4-14.2-14.2V169.8
	c0,0,4.3-59.6-48-59.6c0,0-49.9-2.5-49.9,90.9v216c0,7.9-6.4,14.2-14.2,14.2h-73.5c-7.9,0-14.2-6.4-14.2-14.2V38.7
	c0-7.9,6.4-14.2,14.2-14.2h68c7.9,0,14.2,6.4,14.2,14.2l0,0V92c0,0,24.3-76,96.4-76c0,0,77.3-11.7,103.3,69.1
	C2446.3,85,2454.8,101.7,2454.8,183.8L2454.8,183.8z M1924.4,14.4c-93.9,0-170.1,79.2-170.1,212.4c0,117.3,58.8,212.4,170.1,212.4
	c105,0,170.1-95.1,170.1-212.4C2094.5,95.9,2018.3,14.4,1924.4,14.4z M1983.7,231.5c0,50.2-6.3,76.8-6.3,76.8
	c-8.9,53-47.4,53.1-53.1,52.8c-6.1,0.2-45-0.3-53-52.8c0,0-6.3-26.7-6.3-76.8v-8.4c0-50.2,6.3-76.8,6.3-76.8
	c8-52.5,46.9-53.1,53-52.8c5.7-0.3,44.2-0.2,53.1,52.8c0,0,6.3,26.7,6.3,76.8V231.5z M1711.7,91.5V37.1c0-7.9-6.4-14.2-14.2-14.2
	h-242.8c-7.9,0-14.2,6.4-14.2,14.2l0,0V91c0,7.9,6.4,14.2,14.2,14.2h126.7l-149.9,217.5c0,0-5.9,8.8-5.7,18.6v66.2
	c0,0-1,22.7,24.7,9.5c0,0,45.7-27.6,122.3-27.6c0,0,75.7-0.9,126.1,30c0,0,20.9,9.5,20.9-11.4v-57.6c0,0,1.9-15.2-18.1-24.8
	c0,0-58.1-31.9-134.2-26.7L1711.7,91.5z M402.6,363.7l-23-35c-7.3-13.1-6.8-27.7-6.8-27.7V139.5C376,0,221.3,12,221.3,12
	C83.8,12,63.5,119,63.5,119c-5.7,21.5,10.9,22,10.9,22l67.2,6.8c0,0,11.5,2.6,15.6-11c0,0,8.8-46.7,58.3-46.7
	c53.8,0,53.3,46.2,53.3,46.2V175c-107.5,3.6-157.3,33.4-157.3,33.4C45.1,246,49.3,320.8,49.3,320.8c0,121.8,116,116.5,116,116.5
	c74.2,0,118.1-54.3,118.1-54.3c13.1,23,37.1,44.9,37.1,44.9c12,13,24.6,2.1,24.6,2.1l54.4-46.5C411.5,374.7,402.6,363.7,402.6,363.7
	z M201.6,362.2c-34.9,0-47.9-34.7-42.1-68.8c5.8-34.1,35.9-60.9,109.3-60.1V254C271.5,344.6,230.7,362.2,201.6,362.2L201.6,362.2z
	 M1378.8,363.7l-23-35c-7.3-13.1-6.8-27.7-6.8-27.7V139.5C1352.2,0,1197.5,12,1197.5,12c-137.5,0-157.8,107-157.8,107
	c-5.7,21.5,10.9,22,10.9,22l67.2,6.8c0,0,11.5,2.6,15.6-11c0,0,8.8-46.7,58.3-46.7c53.8,0,53.3,46.2,53.3,46.2V175
	c-107.5,3.6-157.3,33.4-157.3,33.4c-66.4,37.6-62.2,112.4-62.2,112.4c0,121.8,116,116.5,116,116.5c74.2,0,118.1-54.3,118.1-54.3
	c13.1,23,37.1,44.9,37.1,44.9c12,13,24.6,2.1,24.6,2.1l54.3-46.5C1387.7,374.7,1378.8,363.7,1378.8,363.7L1378.8,363.7z
	 M1177.8,362.2c-34.9,0-47.9-34.7-42.1-68.8s35.9-60.9,109.3-60.1V254C1247.6,344.6,1206.8,362.2,1177.8,362.2L1177.8,362.2z"/>
<g class="st1">
	<path class="st2" d="M1563.8,669.3c0,0-6.1,10.7,1.4,13.1c0,0,8.5,3.3,19.2-6.5c0,0,77.6-67.8,79.4-191.1c0,0,0.6-15.4-5.6-19.6
		c0,0-24.3-21.5-111.7-15c0,0-76.2,5.1-117.8,42.1c0,0-3.7,3.3-3.7,7.5c0,0-0.9,9.1,22,5.1c0,0,76.2-10.8,121.5-5.1
		c0,0,23.4,2.8,29.9,10.8c0,0,10.7,8.9,5.1,38.3C1603.5,548.8,1588.1,623.6,1563.8,669.3L1563.8,669.3z"/>
	<path class="st2" d="M1548.4,551c0,0,11.4,14.7-7,27.4c0,0-196.1,156.8-525.3,156.8c0,0-338.9,16.7-621.9-240.4
		c0,0-9.9-8.7-3.8-16.8c0,0,5.5-7.4,19.8,0.7c0,0,266.2,165.9,615.8,165.9c0,0,243,9.4,492.3-97.2
		C1518.4,547.4,1538.2,537.1,1548.4,551L1548.4,551z"/>
</g>
<path class="st3" d="M2294.6,179.5h-40.7l-192.2,392.2h52.4l51.6-105.6h217l53.1,105.6h53.1L2294.6,179.5z M2188.4,420.3l85.8-173.9
	l86.6,173.9H2188.4L2188.4,420.3z M1094,167.7c-115.2,0-208.7,93.4-208.7,208.6c0,115.3,93.4,208.7,208.7,208.7
	c115.2,0,208.7-93.4,208.7-208.7C1302.7,261.1,1209.2,167.7,1094,167.7z M1094,539.5c-86.9,0-157.4-73-157.4-163.2
	c0-90.1,70.5-163.1,157.4-163.1s157.3,73,157.3,163.1C1251.3,466.5,1181,539.5,1094,539.5z M825,288.6c0-68.4-45.8-109.1-123-109.1
	H477.1v392.2h48.8V399.9H678l98.3,171.8h53.8l-98.3-172.5C789.4,389,825,343.9,825,288.6L825,288.6z M525.9,354V224.6h175.4
	c47.4,0,72.8,24.7,72.8,65.5c0,41.4-25.5,64-74.9,64L525.9,354L525.9,354z M1434.5,179.5h-49.2v392.2h298.5v-45.8h-249.3V179.5
	L1434.5,179.5z M1788.1,179.5H1739v392.2h298.3v-45.8h-249.2L1788.1,179.5L1788.1,179.5z M217.6,213.3c55.5,0,104.4,29.8,132.5,75
	l40.3-28.9c-38.8-57.4-103.5-91.7-172.8-91.7C102.4,167.7,9,261.1,9,376.4s93.3,208.9,208.6,208.9c69.3,0.1,134.1-34.3,172.8-91.8
	l-40.3-28.8c-28.1,45.1-77,75-132.5,75c-87,0-157.3-73.3-157.3-163.4C60.2,286.2,130.6,213.3,217.6,213.3z"/>
</svg>
