<?xml version="1.0" encoding="UTF-8"?>
<!DOCTYPE svg PUBLIC "-//W3C//DTD SVG 1.1//EN" "http://www.w3.org/Graphics/SVG/1.1/DTD/svg11.dtd">
<svg xmlns="http://www.w3.org/2000/svg" version="1.1" width="3859px" height="1002px" style="shape-rendering:geometricPrecision; text-rendering:geometricPrecision; image-rendering:optimizeQuality; fill-rule:evenodd; clip-rule:evenodd" xmlns:xlink="http://www.w3.org/1999/xlink">
<g><path style="opacity:0.995" fill="#3a56d1" d="M 2045.5,-0.5 C 2051.5,-0.5 2057.5,-0.5 2063.5,-0.5C 2101.03,5.86184 2123.2,27.8618 2130,65.5C 2130.67,354.833 2130.67,644.167 2130,933.5C 2122.11,974.944 2097.11,996.944 2055,999.5C 2013.74,997.24 1988.74,975.906 1980,935.5C 1979.33,644.833 1979.33,354.167 1980,63.5C 1987.58,27.4165 2009.42,6.08321 2045.5,-0.5 Z"/></g>
<g><path style="opacity:0.981" fill="#fd7776" d="M 86.5,5.5 C 86.5,12.1667 86.5,18.8333 86.5,25.5C 88.1992,25.6602 89.8659,25.4935 91.5,25C 99.1222,19.2719 104.456,20.9385 107.5,30C 106.246,37.4672 101.912,40.1339 94.5,38C 92.6277,35.0561 89.961,33.8895 86.5,34.5C 86.5,40.5 86.5,46.5 86.5,52.5C 81.0207,52.9736 75.6874,54.1403 70.5,56C 65.0489,58.9666 60.0489,62.4666 55.5,66.5C 50.6472,63.8995 46.3139,60.5662 42.5,56.5C 43.0402,55.2519 43.7069,54.0852 44.5,53C 52.9415,52.2976 56.1082,47.7976 54,39.5C 50.1457,35.3294 45.6457,34.4961 40.5,37C 38.1469,40.4418 36.9802,44.2751 37,48.5C 36.3109,49.3567 35.4776,50.0233 34.5,50.5C 29.4811,46.4764 24.4811,42.4764 19.5,38.5C 21.4975,33.9885 24.4975,30.1551 28.5,27C 45.1661,12.8417 64.4994,5.67499 86.5,5.5 Z"/></g>
<g><path style="opacity:0.967" fill="#fe9ed3" d="M 86.5,5.5 C 107.022,5.95113 125.356,12.4511 141.5,25C 146.102,29.0937 150.102,33.5937 153.5,38.5C 147.791,42.3567 142.458,46.69 137.5,51.5C 139.149,54.7388 141.816,56.2388 145.5,56C 151.532,60.7149 151.865,65.7149 146.5,71C 139.99,73.993 135.49,72.1596 133,65.5C 132.28,63.8876 132.446,62.3876 133.5,61C 132.881,59.2429 131.714,58.0762 130,57.5C 125.686,60.3166 121.52,63.3166 117.5,66.5C 112.737,62.275 107.404,58.775 101.5,56C 96.6547,54.1312 91.6547,52.9646 86.5,52.5C 86.5,46.5 86.5,40.5 86.5,34.5C 89.961,33.8895 92.6277,35.0561 94.5,38C 101.912,40.1339 106.246,37.4672 107.5,30C 104.456,20.9385 99.1222,19.2719 91.5,25C 89.8659,25.4935 88.1992,25.6602 86.5,25.5C 86.5,18.8333 86.5,12.1667 86.5,5.5 Z"/></g>
<g><path style="opacity:0.981" fill="#76cdd7" d="M 55.5,66.5 C 48.4333,76.7684 45.7666,88.1018 47.5,100.5C 41.5956,102.142 35.5956,103.475 29.5,104.5C 30.3424,99.8391 30.8424,95.1725 31,90.5C 26.1747,82.9389 20.8414,82.6056 15,89.5C 14.2099,92.634 14.5432,95.634 16,98.5C 18.7423,100.121 20.5756,102.454 21.5,105.5C 15.4512,108.046 9.11782,109.713 2.5,110.5C 1.22477,106.898 0.22477,103.231 -0.5,99.5C -0.5,94.5 -0.5,89.5 -0.5,84.5C 1.43401,69.9333 6.26734,56.2666 14,43.5C 15.7498,41.576 17.5831,39.9093 19.5,38.5C 24.4811,42.4764 29.4811,46.4764 34.5,50.5C 35.4776,50.0233 36.3109,49.3567 37,48.5C 36.9802,44.2751 38.1469,40.4418 40.5,37C 45.6457,34.4961 50.1457,35.3294 54,39.5C 56.1082,47.7976 52.9415,52.2976 44.5,53C 43.7069,54.0852 43.0402,55.2519 42.5,56.5C 46.3139,60.5662 50.6472,63.8995 55.5,66.5 Z"/></g>
<g><path style="opacity:0.982" fill="#fdecce" d="M 153.5,38.5 C 170.469,59.7155 176.136,83.7155 170.5,110.5C 164.072,109.643 157.739,108.31 151.5,106.5C 150.304,107.559 149.637,108.893 149.5,110.5C 152.875,114.759 153.042,119.092 150,123.5C 142.114,128.643 136.948,126.643 134.5,117.5C 135.21,113.402 137.376,110.402 141,108.5C 141.781,107.056 141.614,105.723 140.5,104.5C 135.189,103.038 129.856,101.705 124.5,100.5C 125.559,95.5523 125.726,90.5523 125,85.5C 123.022,78.8906 120.522,72.5572 117.5,66.5C 121.52,63.3166 125.686,60.3166 130,57.5C 131.714,58.0762 132.881,59.2429 133.5,61C 132.446,62.3876 132.28,63.8876 133,65.5C 135.49,72.1596 139.99,73.993 146.5,71C 151.865,65.7149 151.532,60.7149 145.5,56C 141.816,56.2388 139.149,54.7388 137.5,51.5C 142.458,46.69 147.791,42.3567 153.5,38.5 Z"/></g>
<g><path style="opacity:0.965" fill="#3a56d1" d="M 47.5,100.5 C 51.1917,112.178 58.1917,121.178 68.5,127.5C 66.5227,132.788 64.0227,137.788 61,142.5C 58,139.202 54.8333,136.035 51.5,133C 43.5038,131.998 39.6705,135.498 40,143.5C 42.8691,149.35 47.3691,151.017 53.5,148.5C 55.2303,149.026 56.5637,150.026 57.5,151.5C 53.9779,157.536 51.3113,163.869 49.5,170.5C 24.0951,158.099 8.42847,138.099 2.5,110.5C 9.11782,109.713 15.4512,108.046 21.5,105.5C 20.5756,102.454 18.7423,100.121 16,98.5C 14.5432,95.634 14.2099,92.634 15,89.5C 20.8414,82.6056 26.1747,82.9389 31,90.5C 30.8424,95.1725 30.3424,99.8391 29.5,104.5C 35.5956,103.475 41.5956,102.142 47.5,100.5 Z"/></g>
<g><path style="opacity:0.965" fill="#fdca6d" d="M 124.5,100.5 C 129.856,101.705 135.189,103.038 140.5,104.5C 141.614,105.723 141.781,107.056 141,108.5C 137.376,110.402 135.21,113.402 134.5,117.5C 136.948,126.643 142.114,128.643 150,123.5C 153.042,119.092 152.875,114.759 149.5,110.5C 149.637,108.893 150.304,107.559 151.5,106.5C 157.739,108.31 164.072,109.643 170.5,110.5C 165.7,131.592 154.7,148.758 137.5,162C 133.213,165.309 128.547,167.809 123.5,169.5C 121.247,163.828 118.581,158.328 115.5,153C 114.101,152.405 112.768,152.572 111.5,153.5C 110.344,158.327 107.344,160.994 102.5,161.5C 102.167,161.5 101.833,161.5 101.5,161.5C 94.7586,160.378 92.2586,156.378 94,149.5C 95.8512,146.572 98.5179,144.906 102,144.5C 104.734,145.593 107.4,145.593 110,144.5C 108.997,138.476 106.83,132.81 103.5,127.5C 114.558,121.746 121.558,112.746 124.5,100.5 Z"/></g>
<g><path style="opacity:0.984" fill="#8978fa" d="M 68.5,127.5 C 80.1787,132.831 91.8454,132.831 103.5,127.5C 106.83,132.81 108.997,138.476 110,144.5C 107.4,145.593 104.734,145.593 102,144.5C 98.5179,144.906 95.8512,146.572 94,149.5C 92.2586,156.378 94.7586,160.378 101.5,161.5C 101.833,162.833 102.167,162.833 102.5,161.5C 107.344,160.994 110.344,158.327 111.5,153.5C 112.768,152.572 114.101,152.405 115.5,153C 118.581,158.328 121.247,163.828 123.5,169.5C 99.1123,181.149 74.4457,181.482 49.5,170.5C 51.3113,163.869 53.9779,157.536 57.5,151.5C 56.5637,150.026 55.2303,149.026 53.5,148.5C 47.3691,151.017 42.8691,149.35 40,143.5C 39.6705,135.498 43.5038,131.998 51.5,133C 54.8333,136.035 58,139.202 61,142.5C 64.0227,137.788 66.5227,132.788 68.5,127.5 Z"/></g>
<g><path style="opacity:0.996" fill="#feca6d" d="M 663.5,297.5 C 721.507,292.721 776.507,303.221 828.5,329C 895.155,366.032 937.321,421.865 955,496.5C 959.493,517.257 961.826,538.257 962,559.5C 962.667,682.167 962.667,804.833 962,927.5C 959.881,958.615 944.715,980.781 916.5,994C 881.885,1006.05 852.052,998.887 827,972.5C 817.759,960.787 812.426,947.454 811,932.5C 810.667,804.5 810.333,676.5 810,548.5C 803.64,486.141 769.14,452.974 706.5,449C 651.569,444.538 602.569,459.205 559.5,493C 539.292,507.541 522.125,525.041 508,545.5C 503.602,552.628 500.602,560.295 499,568.5C 498.667,690.5 498.333,812.5 498,934.5C 493.876,961.291 479.709,980.791 455.5,993C 420.312,1006.41 389.812,999.575 364,972.5C 355.129,961.752 349.796,949.419 348,935.5C 347.333,744.5 347.333,553.5 348,362.5C 354.495,329.004 374.328,308.171 407.5,300C 447.806,295.737 475.972,312.237 492,349.5C 529.191,325.876 569.691,310.709 613.5,304C 630.23,301.159 646.897,298.993 663.5,297.5 Z"/></g>
<g><path style="opacity:0.995" fill="#b1dcc6" d="M 1511.5,1001.5 C 1504.83,1001.5 1498.17,1001.5 1491.5,1001.5C 1371.06,995.704 1274.56,945.037 1202,849.5C 1135.99,754.476 1119.99,651.476 1154,540.5C 1197.27,424.57 1278.1,348.403 1396.5,312C 1464.92,292.345 1533.26,292.679 1601.5,313C 1654.19,326.852 1702.53,349.519 1746.5,381C 1757.66,390.156 1768.16,399.989 1778,410.5C 1800.05,439.157 1804.05,470.157 1790,503.5C 1770.45,534.346 1742.62,546.179 1706.5,539C 1699.82,537.161 1693.49,534.494 1687.5,531C 1666.01,515.421 1644.34,500.088 1622.5,485C 1557.65,443.922 1489.32,437.255 1417.5,465C 1357.72,490.113 1317.22,533.279 1296,594.5C 1276.76,670.764 1295.26,736.264 1351.5,791C 1415.94,846.771 1489.27,862.771 1571.5,839C 1594.54,829.652 1616.2,817.985 1636.5,804C 1654.31,790.263 1672.64,777.263 1691.5,765C 1723.9,750.729 1753.07,755.563 1779,779.5C 1800.26,805.963 1804.26,834.963 1791,866.5C 1782.13,883.372 1770.3,897.872 1755.5,910C 1720.95,937.449 1682.62,958.449 1640.5,973C 1598.5,987.754 1555.5,997.254 1511.5,1001.5 Z"/></g>
<g><path style="opacity:0.998" fill="#8978fa" d="M 3858.5,919.5 C 3858.5,923.5 3858.5,927.5 3858.5,931.5C 3854.32,962.985 3837.32,984.485 3807.5,996C 3757.44,1003.99 3711.11,994.322 3668.5,967C 3657.73,959.401 3648.07,950.568 3639.5,940.5C 3597.22,968.096 3551.22,986.596 3501.5,996C 3426.57,1004.38 3353.9,995.05 3283.5,968C 3230.33,947.487 3187.83,913.653 3156,866.5C 3133.96,830.329 3123.46,790.996 3124.5,748.5C 3123.76,694.204 3141.26,646.871 3177,606.5C 3210.07,570.79 3249.57,544.623 3295.5,528C 3343.53,509.995 3393.19,501.495 3444.5,502.5C 3471.88,502.51 3499.22,503.677 3526.5,506C 3551.35,509.045 3575.35,515.212 3598.5,524.5C 3598.67,515.494 3598.5,506.494 3598,497.5C 3595.87,491.416 3592.37,486.249 3587.5,482C 3562.43,467.309 3535.43,457.976 3506.5,454C 3444.71,443.087 3384.04,447.42 3324.5,467C 3302.16,474.67 3279.82,482.337 3257.5,490C 3220.5,500.113 3190.67,489.947 3168,459.5C 3151.41,424.709 3157.57,394.542 3186.5,369C 3216.32,346.59 3249.32,330.257 3285.5,320C 3382.45,291.422 3479.79,290.089 3577.5,316C 3632.4,331.97 3677.9,361.804 3714,405.5C 3736.7,435.6 3748.7,469.6 3750,507.5C 3750.33,617.5 3750.67,727.5 3751,837.5C 3751.73,843.148 3754.57,847.314 3759.5,850C 3777.21,855.276 3795.21,859.276 3813.5,862C 3843.64,869.311 3858.64,888.478 3858.5,919.5 Z M 3422.5,653.5 C 3483.3,652.26 3541.63,663.593 3597.5,687.5C 3616.45,757.041 3593.45,805.874 3528.5,834C 3477.14,854.348 3424.81,857.015 3371.5,842C 3346.39,835.779 3323.73,824.779 3303.5,809C 3276.61,784.923 3269.11,755.757 3281,721.5C 3288.64,707.187 3299.14,695.353 3312.5,686C 3331.05,674.366 3351.05,666.033 3372.5,661C 3389.18,657.594 3405.85,655.094 3422.5,653.5 Z"/></g>
<g><path style="opacity:0.999" fill="#fd7776" d="M 71.5,298.5 C 111.003,297.204 137.836,314.871 152,351.5C 153.476,356.406 154.476,361.406 155,366.5C 155.667,554.833 155.667,743.167 155,931.5C 147.738,974.048 122.571,996.714 79.5,999.5C 38.4973,996.998 13.6639,975.664 5,935.5C 4.33333,744.5 4.33333,553.5 5,362.5C 12.7085,325.955 34.8752,304.622 71.5,298.5 Z"/></g>
<g><path style="opacity:0.995" fill="#fe9ed3" d="M 2608.5,1001.5 C 2600.5,1001.5 2592.5,1001.5 2584.5,1001.5C 2519.53,999.236 2461.86,977.736 2411.5,937C 2358.37,887.558 2329.87,826.391 2326,753.5C 2325.33,623.5 2325.33,493.5 2326,363.5C 2332.04,329.462 2351.87,308.295 2385.5,300C 2422.02,294.381 2449.86,307.215 2469,338.5C 2472.34,345.509 2474.67,352.842 2476,360.5C 2476.33,487.167 2476.67,613.833 2477,740.5C 2478.73,806.222 2512.23,842.389 2577.5,849C 2630.59,854.065 2678.59,841.065 2721.5,810C 2739.9,796.93 2756.4,781.763 2771,764.5C 2778.83,755.001 2784.49,744.334 2788,732.5C 2788.33,729.5 2788.67,726.5 2789,723.5C 2789.33,602.167 2789.67,480.833 2790,359.5C 2796.02,332.475 2811.85,313.641 2837.5,303C 2873.7,292.001 2903.53,301.167 2927,330.5C 2934.69,341.239 2939.03,353.239 2940,366.5C 2940.67,554.833 2940.67,743.167 2940,931.5C 2936.18,960.656 2921.01,981.49 2894.5,994C 2862.65,1005.56 2834.82,999.39 2811,975.5C 2804.88,967.889 2799.38,959.889 2794.5,951.5C 2754.63,975.178 2711.63,990.012 2665.5,996C 2646.42,998.598 2627.42,1000.43 2608.5,1001.5 Z"/></g>
</svg>
