<?xml version="1.0" encoding="utf-8"?>
<!-- Generator: Adobe Illustrator 24.1.2, SVG Export Plug-In . SVG Version: 6.00 Build 0)  -->
<svg version="1.1" id="Layer_1" xmlns="http://www.w3.org/2000/svg" xmlns:xlink="http://www.w3.org/1999/xlink" x="0px" y="0px"
	 viewBox="0 0 2500 752" style="enable-background:new 0 0 2500 752;" xml:space="preserve">
<style type="text/css">
	.st0{display:none;}
	.st1{display:inline;}
</style>
<g id="Layer_1_1_" class="st0">
	<path class="st1" d="M561.2,184.5v232.7c0,7.9-6.4,14.2-14.2,14.2h-73.5c-7.9,0-14.2-6.4-14.2-14.2V38.7c0-7.9,6.4-14.2,14.2-14.2
		h68c7.9,0,14.2,6.4,14.2,14.2V92c0,0,24.3-76,96.4-76c0,0,71.3-8.6,100.3,70.5c0,0,24.3-70.5,98-70.5c0,0,109.6-6.5,109.6,106.9
		l0.8,62.4V418c0,7.9-6.4,14.2-14.2,14.2l0,0h-73.5c-7.9,0-14.2-6.4-14.2-14.2l-0.7-253.9c2.1-57.5-44.4-53.3-44.4-53.3
		c-58.5,1-52.9,74.5-52.9,74.5V418c0,7.9-6.4,14.2-14.2,14.2h-73.5c-7.9,0-14.2-6.4-14.2-14.2V169.8c0,0,4.3-59.6-48-59.6
		C611.2,110.3,559.4,103.5,561.2,184.5z M2454.8,183.8v232.7c0,7.9-6.4,14.2-14.2,14.2l-76.4,1.5c-7.9,0-14.2-6.4-14.2-14.2V169.8
		c0,0,4.3-59.6-48-59.6c0,0-49.9-2.5-49.9,90.9v216c0,7.9-6.4,14.2-14.2,14.2h-73.5c-7.9,0-14.2-6.4-14.2-14.2V38.7
		c0-7.9,6.4-14.2,14.2-14.2h68c7.9,0,14.2,6.4,14.2,14.2l0,0V92c0,0,24.3-76,96.4-76c0,0,77.3-11.7,103.3,69.1
		C2446.3,85,2454.8,101.7,2454.8,183.8L2454.8,183.8z M1924.4,14.4c-93.9,0-170.1,79.2-170.1,212.4c0,117.3,58.8,212.4,170.1,212.4
		c105,0,170.1-95.1,170.1-212.4C2094.5,95.9,2018.3,14.4,1924.4,14.4z M1983.7,231.5c0,50.2-6.3,76.8-6.3,76.8
		c-8.9,53-47.4,53.1-53.1,52.8c-6.1,0.2-45-0.3-53-52.8c0,0-6.3-26.7-6.3-76.8v-8.4c0-50.2,6.3-76.8,6.3-76.8
		c8-52.5,46.9-53.1,53-52.8c5.7-0.3,44.2-0.2,53.1,52.8c0,0,6.3,26.7,6.3,76.8V231.5z M1711.7,91.5V37.1c0-7.9-6.4-14.2-14.2-14.2
		h-242.8c-7.9,0-14.2,6.4-14.2,14.2l0,0V91c0,7.9,6.4,14.2,14.2,14.2h126.7l-149.9,217.5c0,0-5.9,8.8-5.7,18.6v66.2
		c0,0-1,22.7,24.7,9.5c0,0,45.7-27.6,122.3-27.6c0,0,75.7-0.9,126.1,30c0,0,20.9,9.5,20.9-11.4v-57.6c0,0,1.9-15.2-18.1-24.8
		c0,0-58.1-31.9-134.2-26.7L1711.7,91.5z M402.6,363.7l-23-35c-7.3-13.1-6.8-27.7-6.8-27.7V139.5C376,0,221.3,12,221.3,12
		C83.8,12,63.5,119,63.5,119c-5.7,21.5,10.9,22,10.9,22l67.2,6.8c0,0,11.5,2.6,15.6-11c0,0,8.8-46.7,58.3-46.7
		c53.8,0,53.3,46.2,53.3,46.2V175c-107.5,3.6-157.3,33.4-157.3,33.4C45.1,246,49.3,320.8,49.3,320.8c0,121.8,116,116.5,116,116.5
		c74.2,0,118.1-54.3,118.1-54.3c13.1,23,37.1,44.9,37.1,44.9c12,13,24.6,2.1,24.6,2.1l54.4-46.5
		C411.5,374.7,402.6,363.7,402.6,363.7z M201.6,362.2c-34.9,0-47.9-34.7-42.1-68.8c5.8-34.1,35.9-60.9,109.3-60.1V254
		C271.5,344.6,230.7,362.2,201.6,362.2L201.6,362.2z M1378.8,363.7l-23-35c-7.3-13.1-6.8-27.7-6.8-27.7V139.5
		C1352.2,0,1197.5,12,1197.5,12c-137.5,0-157.8,107-157.8,107c-5.7,21.5,10.9,22,10.9,22l67.2,6.8c0,0,11.5,2.6,15.6-11
		c0,0,8.8-46.7,58.3-46.7c53.8,0,53.3,46.2,53.3,46.2V175c-107.5,3.6-157.3,33.4-157.3,33.4c-66.4,37.6-62.2,112.4-62.2,112.4
		c0,121.8,116,116.5,116,116.5c74.2,0,118.1-54.3,118.1-54.3c13.1,23,37.1,44.9,37.1,44.9c12,13,24.6,2.1,24.6,2.1l54.3-46.5
		C1387.7,374.7,1378.8,363.7,1378.8,363.7L1378.8,363.7z M1177.8,362.2c-34.9,0-47.9-34.7-42.1-68.8s35.9-60.9,109.3-60.1V254
		C1247.6,344.6,1206.8,362.2,1177.8,362.2L1177.8,362.2z"/>
	<g class="st1">
		<path d="M1563.8,669.3c0,0-6.1,10.7,1.4,13.1c0,0,8.5,3.3,19.2-6.5c0,0,77.6-67.8,79.4-191.1c0,0,0.6-15.4-5.6-19.6
			c0,0-24.3-21.5-111.7-15c0,0-76.2,5.1-117.8,42.1c0,0-3.7,3.3-3.7,7.5c0,0-0.9,9.1,22,5.1c0,0,76.2-10.8,121.5-5.1
			c0,0,23.4,2.8,29.9,10.8c0,0,10.7,8.9,5.1,38.3C1603.5,548.8,1588.1,623.6,1563.8,669.3L1563.8,669.3z"/>
		<path d="M1548.4,551c0,0,11.4,14.7-7,27.4c0,0-196.1,156.8-525.3,156.8c0,0-338.9,16.7-621.9-240.4c0,0-9.9-8.7-3.8-16.8
			c0,0,5.5-7.4,19.8,0.7c0,0,266.2,165.9,615.8,165.9c0,0,243,9.4,492.3-97.2C1518.4,547.4,1538.2,537.1,1548.4,551L1548.4,551z"/>
	</g>
</g>
<g id="Layer_2_1_">
	<g>
		<path d="M156.9,343.2l97.1-96.9l97.1,97l56.5-56.4L254,133.5L100.4,286.8L156.9,343.2z"/>
		<path d="M4,383l56.5-56.4L117,383l-56.5,56.4L4,383z"/>
		<path d="M156.9,422.8l97.1,96.9l97.1-97l56.5,56.3l0,0L254,632.5L100.4,479.2l-0.1-0.1L156.9,422.8z"/>
		<path d="M391,383l56.5-56.4L504,383l-56.5,56.4L391,383z"/>
		<path d="M311.3,383L254,325.8L211.7,368l-4.9,4.8l-10,10l-0.1,0.1l0.1,0.1l57.3,57.1L311.3,383L311.3,383L311.3,383z"/>
		<g transform="translate(.55)">
			<path d="M591.6,254.4h122.9c30.5,0,53.5,7.9,69.2,23.6c11.9,11.8,18.5,27.9,18.1,44.6v0.7c0.1,6.8-0.8,13.5-2.8,20
				c-1.7,5.6-4.3,10.9-7.5,15.8c-3,4.6-6.7,8.7-10.9,12.3c-4.1,3.5-8.6,6.6-13.4,9.1c13.8,4.8,26.3,12.9,36.2,23.6
				c8.8,10,13.2,23.8,13.2,41.4v0.7c0.2,11-2.1,21.9-7,31.8c-4.7,9.1-11.6,16.9-20,22.7c-9.6,6.4-20.2,11-31.4,13.6
				c-13.3,3.2-27,4.7-40.6,4.5h-126V254.4z M702.1,361.4c10.6,0.5,21.2-1.8,30.7-6.6c7.5-4.4,11.9-12.7,11.3-21.4v-0.7
				c0.4-8-3.3-15.6-9.8-20.2c-6.6-4.7-16-7-28.4-7h-57.5v55.9L702.1,361.4L702.1,361.4z M717.7,468c10.6,0.6,21.1-1.8,30.4-7
				c7.4-4.7,11.6-13,11-21.8v-0.7c0.3-8.3-3.5-16.1-10.2-21c-6.8-5.3-17.8-7.9-32.9-7.9h-67.5V468H717.7z"/>
			<path d="M889.8,254.4h58.3V519h-58.3V254.4z"/>
			<path d="M1036.4,254.4h53.8l124.3,162.9V254.4h57.6V519h-49.6L1094,350.8V519h-57.7L1036.4,254.4z"/>
			<path d="M1448.6,252.5h53.7L1616,519h-60.9l-24.2-59.4h-112.1l-24.2,59.4H1335L1448.6,252.5z M1510,408.3l-35.3-85.8l-35.1,85.8
				H1510z"/>
			<path d="M1679,254.4h53.8L1857,417.3V254.4h57.6V519H1865l-128.4-168.2V519H1679V254.4z"/>
			<path d="M2124.6,523.7c-18.6,0.2-37-3.4-54.2-10.6c-32.6-13.5-58.5-39.5-71.6-72.2c-6.9-16.9-10.3-35.1-10.2-53.3v-0.7
				c-0.3-36,13.6-70.7,38.7-96.6c12.3-12.6,27.1-22.7,43.4-29.5c17.8-7.3,36.8-11,56-10.8c11.4-0.1,22.7,0.9,33.9,3
				c9.6,1.8,18.9,4.6,27.9,8.3c8.1,3.4,15.9,7.7,23.1,12.8c7,5,13.6,10.6,19.7,16.6l-37.1,42.7c-9.5-8.7-20.1-16.1-31.6-22
				c-11.3-5.4-23.7-8.1-36.2-7.9c-21.1-0.2-41.2,8.6-55.3,24.2c-6.9,7.7-12.3,16.6-16,26.3c-3.8,10.2-5.7,21.1-5.6,32v0.7
				c0,10.9,1.9,21.7,5.6,31.9c3.6,9.7,8.9,18.7,15.8,26.4c14,15.8,34.2,24.8,55.3,24.6c13.3,0.4,26.5-2.4,38.4-8.3
				c11.4-6.2,21.9-13.8,31.2-22.7l37.1,37.4c-6.6,7.1-13.6,13.7-21.2,19.7c-7.4,5.9-15.5,10.9-24.1,14.9c-9.1,4.3-18.7,7.4-28.6,9.4
				C2147.8,522.7,2136.2,523.8,2124.6,523.7z"/>
			<path d="M2301.9,254.4h199.5v51.8h-142.2v53.7h125.2v51.8h-125v55.6h143.9V519H2302L2301.9,254.4z"/>
		</g>
	</g>
</g>
</svg>
