<?xml version="1.0" encoding="utf-8"?>
<!-- Generator: Adobe Illustrator 24.1.2, SVG Export Plug-In . SVG Version: 6.00 Build 0)  -->
<svg version="1.1" id="Layer_1" xmlns="http://www.w3.org/2000/svg" xmlns:xlink="http://www.w3.org/1999/xlink" x="0px" y="0px"
	 viewBox="0 0 2500 523" style="enable-background:new 0 0 2500 523;" xml:space="preserve">
<path d="M289.4,0.1C205.9,0.2,116.6,32.9,22.3,103.4C11.7,111.2,6,124.1,7.5,137.2s10,24.3,22.1,29.4c12.1,5.1,26.1,3.3,36.5-4.8
	C157.2,93.6,233.8,70,302.2,73.6c68.4,3.5,131.8,34.5,194.3,86.9c9.9,9.3,24.1,12.4,36.9,8c12.8-4.4,22.1-15.6,24.2-29
	c2.1-13.4-3.5-26.8-14.4-34.9C472.9,45.7,394.3,5.1,306,0.6C300.5,0.3,294.9,0.1,289.4,0.1z M1586.3,0.1
	c-83.5,0.1-172.8,32.7-267.1,103.3c-10.6,7.7-16.3,20.7-14.8,33.8c1.5,13.1,10,24.3,22.1,29.4c12.1,5.1,26.1,3.3,36.5-4.8
	c91-68.2,167.7-91.8,236-88.2c68.4,3.5,131.8,34.5,194.3,86.9c9.9,9.3,24.1,12.4,36.9,8s22.1-15.6,24.2-29s-3.5-26.8-14.4-34.9
	c-70.3-58.9-148.9-99.5-237.2-104C1597.4,0.3,1591.8,0.1,1586.3,0.1z M1165.7,14.7c-13.3,0.6-25.3,8.4-31.2,20.3L933.9,407.9
	L733.5,35c-6.3-12.3-19-20-32.9-19.8c-12.9,0.2-24.8,7.1-31.2,18.2s-6.5,24.8-0.2,36l232.6,432.7c6.4,11.8,18.7,19.2,32.2,19.2
	c13.4,0,25.8-7.3,32.2-19.2l232.6-432.7c6.6-11.5,6.5-25.8-0.5-37.2C1191.4,20.9,1178.9,14.2,1165.7,14.7L1165.7,14.7z M2229.4,15.6
	c-13.1,0.4-25.1,7.8-31.2,19.4l-232.6,432.7c-6.6,11.6-6.5,25.8,0.5,37.2c6.9,11.4,19.3,18.1,32.6,17.5c13.3-0.6,25.3-8.3,31.2-20.3
	l200.5-372.9l200.5,372.9c6,11.9,17.9,19.7,31.2,20.3s25.7-6.2,32.6-17.5c6.9-11.4,7.1-25.7,0.5-37.2L2262.5,35
	C2256,22.8,2243.2,15.3,2229.4,15.6L2229.4,15.6z M36.9,225c-13.1-0.2-25.3,6.7-31.9,18c-6.6,11.4-6.6,25.5,0,36.9
	c6.6,11.3,18.8,18.2,31.9,18h263.7c13.1,0.2,25.3-6.7,31.9-18c6.6-11.4,6.6-25.5,0-36.9s-18.8-18.2-31.9-18H36.9z M1575.3,225
	c-13.1-0.2-25.3,6.7-31.9,18c-6.6,11.4-6.6,25.5,0,36.9c6.6,11.3,18.8,18.2,31.9,18H1781l2.1,73c-59.2,47.3-119.5,75.4-184.1,78.7
	c-68.4,3.5-145-20.1-236.1-88.3c-6.8-5.2-15.2-7.9-23.7-7.5c-15.5,0.6-29,10.9-33.5,25.8c-4.5,14.8,0.9,31,13.5,40.1
	c100.6,75.3,195.4,107.2,283.7,102.6c88.3-4.5,166.9-44.9,237.2-103.8c8.2-6.8,13-16.9,13.2-27.6c0.2-10.3,0-123.2,0-129.5
	c0-6.4,0.6-12.8-2.7-18.5c-6.6-11.4-18.8-18.2-31.9-18L1575.3,225L1575.3,225L1575.3,225z M2228.5,311.2c-27,0-49,22.1-49,49
	c0,27,22.1,48.8,49,48.8c27,0,48.8-21.8,48.8-48.8C2277.3,333.3,2255.5,311.2,2228.5,311.2L2228.5,311.2z M42.4,353.9
	c-15.5,0.6-29,10.9-33.5,25.8c-4.5,14.8,0.9,31,13.5,40.1C122.9,495.1,217.7,527,306,522.4c88.3-4.5,166.9-44.9,237.2-103.8
	c15.5-12.9,17.7-36.1,4.8-51.6s-36.1-17.5-51.6-4.6c-62.5,52.4-126,83.6-194.3,87.1c-68.4,3.5-145-20.1-236.1-88.3
	C59.3,356.2,50.9,353.5,42.4,353.9L42.4,353.9z"/>
</svg>
