<?xml version="1.0" encoding="utf-8"?>
<!-- Generator: Adobe Illustrator 24.1.2, SVG Export Plug-In . SVG Version: 6.00 Build 0)  -->
<svg version="1.1" id="Layer_1" xmlns="http://www.w3.org/2000/svg" xmlns:xlink="http://www.w3.org/1999/xlink" x="0px" y="0px"
	 viewBox="0 0 2500 448" style="enable-background:new 0 0 2500 448;" xml:space="preserve">
<path d="M890.7,444.1c-90.6,0-174.6-27.2-230.7-77.5c-42.4-38.1-62.8-89.7-62.8-142.9c0-52.5,21.2-104.6,62.8-142.4
	C712,33.7,804,3.9,890.7,3.9c95.9,0,172.6,24.1,231.2,77.4c41.7,37.9,61.9,89.7,61.9,142.3c0,51-21.4,105.4-61.9,142.9
	C1067.3,417.2,981.4,444.1,890.7,444.1V386c48.1,0,92.7-16.6,123.8-47.6c30.9-30.8,45.3-68.6,45.3-114.8
	c0-44.3-15.5-85.7-45.3-115.1c-30.7-30.3-76.4-47.3-123.8-47.3c-47.6,0-93.2,16.9-124,47.3c-29.6,29.4-45.2,70.9-45.2,115.1
	c0,44,15.8,85.5,45.2,114.8C797.5,369,843,386,890.7,386L890.7,444.1L890.7,444.1z M228.7,4.1c-48.4,0-103.5,9.1-150.2,29.9
	C35.3,53.3,0,84.5,0,136.1c0,46.5,29.5,73.7,28.7,73c12.6,11.6,32.8,31.3,85.7,42.8c23.6,5.2,74.2,13.1,124.5,18.4
	c50,5.3,99.1,10.3,119.2,15.4c15.9,4.1,42.6,9.6,42.6,39.6c0,29.9-28.2,39-33.1,41c-4.9,1.9-38.7,17.4-99.4,17.4
	c-44.8,0-98.7-13.5-118.4-20.5c-22.7-8.1-46.4-18.7-68.6-45.8C75.7,310.7,67,292.2,67,274H12v154h61.1v-20.8c0-2.4,3-12.1,13.2-7.5
	c12.8,5.8,50.2,20.7,89.4,28.9c32.1,6.7,52.8,11.5,92.7,11.5c65.1,0,100.1-10.6,124.3-17.5c22.8-6.5,51-18.2,73.8-36.5
	c12.4-9.9,39.6-35.2,39.6-81c0-44.1-23.6-71.4-32-79.7c-11.3-11.3-25.2-20.1-39.6-26.9c-12.6-5.9-32.4-13-48.6-17
	c-31.5-7.7-102.7-17.3-136.7-20.8c-35.7-3.7-97.6-8.9-122.4-16.5c-7.5-2.3-22.8-9.6-22.8-27.4c0-12.6,7-23.3,20.8-32
	c21.9-13.7,66.2-22.3,112.4-22.3c54.6-0.2,100.9,12.3,130.3,25.4c10,4.5,21.7,10.9,31,18.5c10.5,8.6,25.2,26.3,30.5,51.1h49.3V23.4
	h-55.1V39c0,5-5.2,11.6-15,6.2C383.9,32.2,314.2,4.3,228.7,4.1 M1436.2,28.5L1705,271.1l-2.8-163.3c-0.3-21.4-4.2-30.4-27.4-30.4
	h-50.5V28.5h229.8v48.9h-49.3c-23.6,0-25.1,7.6-25.4,30.4l4.2,312.1h-78.7l-309.6-276.3l0.1,196.1c0.3,21.3,1.3,31.4,23.2,31.4h55.2
	v48.8h-225.7V371h52.8c19.7,0,18.9-18.8,18.9-32.5V109.6c0-14.8-2.1-32.2-33-32.2H1244V28.5H1436.2z M2116.8,370.9
	c2.2,0,11.7-0.3,13.6-0.8c4.7-1.4,8.6-4.9,10.6-9.4c0.7-1.7,1.1-9,1.1-10.6v-77.2c0-1.9-0.1-2.7-3.3-6.8
	c-3.5-4.5-140.8-160.1-147.1-167c-7.8-8.5-21.5-21.7-42.3-21.7h-47.8V28.5h269.5v48.8h-32.5c-7.5,0-12.5,7.1-6.1,15.1
	c0,0,90.7,108.5,91.5,109.6c0.8,1.2,1.6,1.4,2.7,0.4c1.1-1.1,93-109,93.7-109.8c4.4-5.2,1.4-15.1-8-15.1h-33.3v-49H2500v48.9h-49.3
	c-17.9,0-25.2,3.3-38.7,18.5c-6.2,7-144.9,165.4-148.7,169.7c-2,2.2-1.8,5.4-1.8,7.2V350c0,1.6,0.4,8.9,1.1,10.6
	c2,4.5,5.9,8,10.6,9.4c1.9,0.6,11.3,0.9,13.5,0.9h50.5v48.9h-268.1v-48.9H2116.8L2116.8,370.9z"/>
</svg>
